<svg width="30" height="30" viewBox="0 0 30 30" fill="none" xmlns="http://www.w3.org/2000/svg">
<path d="M12.75 27C12.75 27.5967 12.9871 28.169 13.409 28.591C13.831 29.0129 14.4033 29.25 15 29.25C15.5967 29.25 16.169 29.0129 16.591 28.591C17.0129 28.169 17.25 27.5967 17.25 27V17.25H27C27.5967 17.25 28.169 17.0129 28.591 16.591C29.0129 16.169 29.25 15.5967 29.25 15C29.25 14.4033 29.0129 13.831 28.591 13.409C28.169 12.9871 27.5967 12.75 27 12.75H17.25V3C17.25 2.40326 17.0129 1.83097 16.591 1.40901C16.169 0.987053 15.5967 0.75 15 0.75C14.4033 0.75 13.831 0.987053 13.409 1.40901C12.9871 1.83097 12.75 2.40326 12.75 3V12.75H3C2.40326 12.75 1.83097 12.9871 1.40901 13.409C0.987053 13.831 0.75 14.4033 0.75 15C0.75 15.5967 0.987053 16.169 1.40901 16.591C1.83097 17.0129 2.40326 17.25 3 17.25H12.75V27Z" fill="white"/>
</svg>
