<svg width="256" height="256" viewBox="0 0 256 256" fill="none" xmlns="http://www.w3.org/2000/svg">
<g filter="url(#filter0_d_700_993)">
<rect x="43" y="43" width="170" height="170" rx="85" fill="white"/>
<path d="M152.032 94.936C151.136 97.688 149.408 99.8 146.848 101.272C144.288 102.744 141.088 103.48 137.248 103.48C134.176 103.48 130.976 103.224 127.648 102.712C124.32 102.136 120.992 101.432 117.664 100.6C116.832 102.776 116.224 105.176 115.84 107.8C115.52 110.36 115.104 113.144 114.592 116.152C113.888 120.376 112.96 124.664 111.808 129.016C110.656 133.368 109.12 137.336 107.2 140.92C105.28 144.504 102.784 147.224 99.712 149.08C98.368 149.848 97.088 150.648 95.872 151.48C94.72 152.312 93.408 153.016 91.936 153.592C90.528 154.168 88.704 154.456 86.464 154.456C83.584 154.456 81.408 153.912 79.936 152.824C78.528 151.8 77.568 150.328 77.056 148.408C76.608 146.488 76.384 144.216 76.384 141.592C76.384 141.144 76.48 140.312 76.672 139.096C76.928 137.88 77.184 136.664 77.44 135.448C77.76 134.232 78.048 133.4 78.304 132.952C78.752 131.928 79.52 130.648 80.608 129.112C81.76 127.576 83.072 126.04 84.544 124.504C86.016 122.968 87.52 121.688 89.056 120.664C90.592 119.64 92 119.128 93.28 119.128C93.792 119.128 94.368 119.544 95.008 120.376C95.712 121.144 96.32 122.04 96.832 123.064C97.344 124.088 97.6 124.952 97.6 125.656C97.6 125.912 97.472 126.52 97.216 127.48C97.024 128.376 96.608 129.4 95.968 130.552C95.328 131.64 94.368 132.6 93.088 133.432C92.832 133.496 92.576 133.528 92.32 133.528C92.128 133.528 91.904 133.528 91.648 133.528C89.856 133.528 88.96 133.176 88.96 132.472C88.96 131.896 89.536 131.384 90.688 130.936C91.84 130.424 92.704 130.136 93.28 130.072C93.92 130.008 94.336 129.752 94.528 129.304C94.72 128.792 94.816 127.704 94.816 126.04C94.816 125.72 94.72 125.24 94.528 124.6C94.4 123.96 94.208 123.352 93.952 122.776C93.76 122.2 93.536 121.912 93.28 121.912C92.192 121.912 91.104 122.392 90.016 123.352C88.992 124.312 88.032 125.496 87.136 126.904C86.24 128.312 85.44 129.72 84.736 131.128C84.032 132.472 83.52 133.592 83.2 134.488C83.072 134.872 82.848 135.512 82.528 136.408C82.208 137.24 81.92 138.104 81.664 139C81.408 139.832 81.28 140.472 81.28 140.92C81.28 141.752 81.248 142.616 81.184 143.512C81.184 144.344 81.184 145.112 81.184 145.816C81.184 147.544 81.472 148.952 82.048 150.04C82.688 151.128 84.16 151.672 86.464 151.672C88.448 151.672 90.08 151.32 91.36 150.616C92.704 149.848 93.856 148.952 94.816 147.928C95.84 146.84 96.832 145.784 97.792 144.76C101.696 140.792 104.736 136.44 106.912 131.704C109.152 126.904 110.752 121.56 111.712 115.672C112.224 112.536 112.768 109.72 113.344 107.224C113.984 104.664 114.816 102.296 115.84 100.12C112.576 99.224 109.44 98.328 106.432 97.432C103.488 96.472 100.8 95.64 98.368 94.936C97.024 94.488 95.872 94.072 94.912 93.688C94.016 93.24 92.608 93.016 90.688 93.016C89.28 93.016 87.872 93.208 86.464 93.592C85.12 93.912 84.448 94.744 84.448 96.088C84.448 96.472 84.416 96.92 84.352 97.432C84.352 97.944 84.352 98.456 84.352 98.968C84.352 100.184 84.512 101.432 84.832 102.712C85.152 103.928 85.824 104.984 86.848 105.88C87.872 106.712 89.472 107.192 91.648 107.32C92.544 107.384 93.248 107.192 93.76 106.744C94.336 106.296 94.816 105.848 95.2 105.4C95.456 104.76 95.936 104.44 96.64 104.44C97.28 104.44 97.6 104.888 97.6 105.784C97.6 105.976 97.568 106.168 97.504 106.36C97.504 106.552 97.472 106.776 97.408 107.032C96.768 107.8 96 108.536 95.104 109.24C94.272 109.88 93.12 110.2 91.648 110.2C90.56 110.2 89.312 110.008 87.904 109.624C86.56 109.176 85.248 108.408 83.968 107.32C82.688 106.168 81.664 104.6 80.896 102.616C80.192 100.568 79.936 97.976 80.128 94.84C80.256 93.56 80.736 92.344 81.568 91.192C82.464 90.04 83.552 89.112 84.832 88.408C86.176 87.64 87.488 87.256 88.768 87.256C89.792 87.256 91.072 87.416 92.608 87.736C94.144 88.056 95.712 88.44 97.312 88.888C98.976 89.336 100.48 89.784 101.824 90.232C103.232 90.68 104.32 91.032 105.088 91.288C107.136 91.928 109.216 92.728 111.328 93.688C113.44 94.584 115.616 95.48 117.856 96.376C117.984 96.184 118.112 95.992 118.24 95.8C118.432 95.608 118.592 95.384 118.72 95.128C119.424 94.168 120.128 93.688 120.832 93.688C121.152 93.688 121.312 93.848 121.312 94.168C121.312 94.744 120.864 95.512 119.968 96.472C119.904 96.536 119.84 96.632 119.776 96.76C119.712 96.824 119.616 96.92 119.488 97.048C122.432 98.2 125.44 99.192 128.512 100.024C131.584 100.856 134.784 101.272 138.112 101.272C144.256 101.272 148.096 99.128 149.632 94.84C149.696 93.176 150.048 92.344 150.688 92.344C151.008 92.344 151.296 92.6 151.552 93.112C151.872 93.624 152.032 94.232 152.032 94.936Z" fill="black"/>
<g filter="url(#filter1_d_700_993)">
<path d="M178.808 149.464C179.192 149.528 179.384 149.72 179.384 150.04C179.384 150.296 179.192 150.616 178.808 151C178.488 151.448 178.136 151.928 177.752 152.44C176.472 154.232 175 155.48 173.336 156.184C171.672 156.952 170.136 157.336 168.728 157.336C167.384 157.336 166.264 157.08 165.368 156.568C164.728 156.12 163.96 155.416 163.064 154.456C162.232 153.56 161.496 152.376 160.856 150.904C160.28 149.432 160.056 147.704 160.184 145.72C160.312 143.608 160.6 141.176 161.048 138.424C161.496 135.608 162.008 132.76 162.584 129.88C163.16 127 163.672 124.344 164.12 121.912C164.632 119.416 164.984 117.464 165.176 116.056C165.432 114.072 164.92 113.08 163.64 113.08C162.68 113.08 161.528 113.688 160.184 114.904C159.16 116.312 157.816 118.104 156.152 120.28C154.552 122.456 152.92 125.72 151.256 130.072C150.552 131.992 149.752 134.136 148.856 136.504C147.96 138.808 147.352 141.56 147.032 144.76C146.968 145.208 146.968 145.688 147.032 146.2C147.16 146.712 147.224 147.224 147.224 147.736C147.224 148.376 147.064 148.952 146.744 149.464C146.168 150.296 145.496 150.872 144.728 151.192C144.472 151.256 144.216 151.32 143.96 151.384C143.768 151.448 143.576 151.48 143.384 151.48C143.064 151.48 142.776 151.32 142.52 151C142.072 150.488 141.848 149.688 141.848 148.6C141.848 147.512 141.976 146.392 142.232 145.24C142.552 144.024 142.776 142.904 142.904 141.88C143.224 139.512 143.544 137.016 143.864 134.392C144.248 131.704 144.44 128.792 144.44 125.656C144.44 123.544 144.312 121.336 144.056 119.032C143.864 116.664 143.512 114.104 143 111.352C142.744 110.072 142.52 108.888 142.328 107.8C142.136 106.712 141.496 105.816 140.408 105.112C139.64 104.6 138.936 105.016 138.296 106.36C137.656 107.704 137.08 109.688 136.568 112.312C136.12 114.936 135.672 117.976 135.224 121.432C134.776 124.824 134.36 128.344 133.976 131.992C133.336 137.432 132.792 142.36 132.344 146.776C131.96 151.192 131.672 154.392 131.48 156.376C131.416 157.272 130.808 158.008 129.656 158.584C128.568 159.224 127.416 159.672 126.2 159.928C125.048 160.248 124.248 160.408 123.8 160.408C123.288 160.408 123.032 160.024 123.032 159.256C123.032 158.552 123.16 157.752 123.416 156.856C123.736 156.024 123.96 155.352 124.088 154.84C125.432 150.936 126.36 147.224 126.872 143.704C127.448 140.12 127.736 136.696 127.736 133.432C127.736 130.04 127.512 126.808 127.064 123.736C126.616 120.664 126.072 117.752 125.432 115C124.728 111.864 123.32 108.824 121.208 105.88C119.096 102.872 116.472 100.408 113.336 98.488C110.2 96.504 106.712 95.512 102.872 95.512C100.44 95.512 98.072 95.928 95.768 96.76C93.464 97.528 91.16 98.84 88.856 100.696C86.552 102.552 84.632 104.952 83.096 107.896C81.56 110.84 80.792 114.328 80.792 118.36C80.792 122.072 81.592 126.136 83.192 130.552C83.96 132.536 85.272 134.328 87.128 135.928C88.984 137.528 91 138.808 93.176 139.768C95.352 140.728 97.272 141.208 98.936 141.208C99.704 141.208 100.312 141.112 100.76 140.92C103.384 139.96 105.304 138.424 106.52 136.312C107.736 134.2 108.344 132.056 108.344 129.88C108.344 127.96 107.896 126.168 107 124.504C106.168 122.776 104.92 121.496 103.256 120.664C102.424 120.28 102.008 119.736 102.008 119.032C102.008 118.2 102.648 117.784 103.928 117.784C104.824 117.784 105.816 118.04 106.904 118.552C108.184 119.064 109.4 120.088 110.552 121.624C111.704 123.16 112.536 124.888 113.048 126.808C113.176 127.256 113.272 127.736 113.336 128.248C113.4 128.76 113.432 129.272 113.432 129.784C113.432 131.96 112.92 134.072 111.896 136.12C110.936 138.168 109.752 139.96 108.344 141.496C107 142.968 105.72 143.928 104.504 144.376C103.224 144.824 101.784 145.048 100.184 145.048C97.688 145.048 95.128 144.504 92.504 143.416C89.88 142.264 87.48 140.664 85.304 138.616C83.192 136.504 81.624 134.072 80.6 131.32C79.704 128.76 79.064 126.36 78.68 124.12C78.232 121.88 78.008 119.8 78.008 117.88C78.008 113.336 78.904 109.496 80.696 106.36C82.488 103.224 84.696 100.696 87.32 98.776C89.944 96.792 92.504 95.352 95 94.456C96.6 93.88 98.104 93.464 99.512 93.208C100.984 92.952 102.392 92.824 103.736 92.824C106.872 92.824 109.72 93.464 112.28 94.744C114.84 95.96 117.112 97.56 119.096 99.544C121.08 101.528 122.808 103.704 124.28 106.072C125.752 108.376 127 110.68 128.024 112.984C129.048 115.224 129.88 117.176 130.52 118.84C130.776 119.864 131.032 120.728 131.288 121.432C131.544 122.136 131.8 122.488 132.056 122.488C132.44 122.488 132.664 121.496 132.728 119.512C132.792 117.016 133.24 114.424 134.072 111.736C134.968 109.048 135.8 106.52 136.568 104.152C137.08 103.064 137.688 102.264 138.392 101.752C139.16 101.24 139.928 100.984 140.696 100.984C141.72 100.984 142.552 101.368 143.192 102.136C145.304 104.376 146.616 106.424 147.128 108.28C147.704 110.136 148.024 112.376 148.088 115C148.152 117.048 148.28 118.872 148.472 120.472C148.728 122.008 149.048 123.128 149.432 123.832C150.84 121.784 152.216 119.768 153.56 117.784C154.968 115.8 156.312 114.104 157.592 112.696C158.872 111.224 159.96 110.328 160.856 110.008C161.624 109.752 162.36 109.624 163.064 109.624C164.344 109.624 165.368 109.944 166.136 110.584C166.904 111.224 167.48 111.896 167.864 112.6C168.312 113.304 168.568 113.72 168.632 113.848C169.08 115 169.304 116.344 169.304 117.88C169.304 119.928 168.952 122.072 168.248 124.312C167.608 126.552 166.872 128.792 166.04 131.032C165.208 133.272 164.44 135.416 163.736 137.464C163.096 139.448 162.776 141.24 162.776 142.84C162.776 146.04 162.904 148.504 163.16 150.232C163.48 151.896 163.896 153.016 164.408 153.592C164.984 154.232 165.656 154.552 166.424 154.552C167.256 154.552 168.152 154.36 169.112 153.976C170.136 153.656 171.256 153.464 172.472 153.4C173.496 153.336 174.392 152.952 175.16 152.248C175.928 151.608 176.6 150.968 177.176 150.328C177.816 149.688 178.36 149.4 178.808 149.464Z" fill="black"/>
</g>
</g>
<defs>
<filter id="filter0_d_700_993" x="0" y="0" width="256" height="256" filterUnits="userSpaceOnUse" color-interpolation-filters="sRGB">
<feFlood flood-opacity="0" result="BackgroundImageFix"/>
<feColorMatrix in="SourceAlpha" type="matrix" values="0 0 0 0 0 0 0 0 0 0 0 0 0 0 0 0 0 0 127 0" result="hardAlpha"/>
<feMorphology radius="3" operator="dilate" in="SourceAlpha" result="effect1_dropShadow_700_993"/>
<feOffset/>
<feGaussianBlur stdDeviation="20"/>
<feComposite in2="hardAlpha" operator="out"/>
<feColorMatrix type="matrix" values="0 0 0 0 0 0 0 0 0 0 0 0 0 0 0 0 0 0 0.17 0"/>
<feBlend mode="normal" in2="BackgroundImageFix" result="effect1_dropShadow_700_993"/>
<feBlend mode="normal" in="SourceGraphic" in2="effect1_dropShadow_700_993" result="shape"/>
</filter>
<filter id="filter1_d_700_993" x="69.0078" y="92.8242" width="119.376" height="87.584" filterUnits="userSpaceOnUse" color-interpolation-filters="sRGB">
<feFlood flood-opacity="0" result="BackgroundImageFix"/>
<feColorMatrix in="SourceAlpha" type="matrix" values="0 0 0 0 0 0 0 0 0 0 0 0 0 0 0 0 0 0 127 0" result="hardAlpha"/>
<feOffset dy="11"/>
<feGaussianBlur stdDeviation="4.5"/>
<feComposite in2="hardAlpha" operator="out"/>
<feColorMatrix type="matrix" values="0 0 0 0 0 0 0 0 0 0 0 0 0 0 0 0 0 0 0.68 0"/>
<feBlend mode="normal" in2="BackgroundImageFix" result="effect1_dropShadow_700_993"/>
<feBlend mode="normal" in="SourceGraphic" in2="effect1_dropShadow_700_993" result="shape"/>
</filter>
</defs>
</svg>
