<svg width="16" height="16" viewBox="0 0 16 16" fill="none" xmlns="http://www.w3.org/2000/svg">
<path d="M9.45752 1.83496V4.23229C9.45752 4.55696 9.58685 4.86896 9.81752 5.09896C10.0488 5.32921 10.3619 5.45842 10.6882 5.45829H13.4382" stroke="black" stroke-width="1.5" stroke-linecap="round" stroke-linejoin="round"/>
<path d="M13.5 5.71183V11.4238C13.4867 11.7974 13.3997 12.1647 13.2438 12.5046C13.088 12.8444 12.8665 13.15 12.592 13.4038C12.0371 13.9186 11.3004 14.192 10.544 14.1638H5.484C5.10714 14.1813 4.73054 14.124 4.37587 13.9954C4.0212 13.8669 3.69544 13.6694 3.41733 13.4145C3.14032 13.1599 2.9166 12.8528 2.75914 12.5111C2.60167 12.1694 2.51359 11.7998 2.5 11.4238V4.5745C2.51324 4.20088 2.60028 3.83357 2.75612 3.49375C2.91196 3.15393 3.13351 2.8483 3.408 2.5945C3.96294 2.07972 4.69958 1.80636 5.456 1.8345H9.26533C9.84682 1.83263 10.4081 2.04777 10.8393 2.43783L12.8127 4.2525C13.0232 4.43391 13.1932 4.6576 13.3116 4.90902C13.43 5.16044 13.4942 5.43397 13.5 5.71183Z" stroke="black" stroke-width="1.5" stroke-linecap="round" stroke-linejoin="round"/>
</svg>
